<?xml version="1.0" standalone="no"?><!DOCTYPE svg PUBLIC "-//W3C//DTD SVG 1.1//EN" "http://www.w3.org/Graphics/SVG/1.1/DTD/svg11.dtd"><svg t="1559024767554" class="icon" style="" viewBox="0 0 1024 1024" version="1.1" xmlns="http://www.w3.org/2000/svg" p-id="4597" xmlns:xlink="http://www.w3.org/1999/xlink" width="200" height="200"><defs><style type="text/css"></style></defs><path d="M950.49728 212.04992l-41.8816 41.60512-139.50976-138.63936 41.8816-41.54368c15.38048-15.31904 39.61856-16.11776 54.016-1.77152l87.20384 86.6304c14.45888 14.336 13.66016 38.4-1.71008 53.71904z m-369.9712 367.68768l-139.50976-138.6496 306.8928-304.92672L887.3984 274.80064 580.5056 579.7376zM561.08032 599.04l-195.2768 55.42912 55.77728-194.06848 139.49952 138.6496z m-325.12-421.632a87.20384 87.20384 0 0 0-87.26528 87.21408v523.4688a87.21408 87.21408 0 0 0 87.21408 87.1936H759.5008a87.21408 87.21408 0 0 0 87.21408-87.20384V439.0912l87.26528-87.21408v465.29536C933.98016 897.46432 868.88448 962.56 788.5824 962.56H206.82752C126.53568 962.56 61.44 897.47456 61.44 817.18272V235.54048C61.44 155.2384 126.53568 90.15296 206.82752 90.15296h465.408l-87.26528 87.26528H235.97056z" p-id="4598"></path></svg>