<?xml version="1.0" standalone="no"?><!DOCTYPE svg PUBLIC "-//W3C//DTD SVG 1.1//EN" "http://www.w3.org/Graphics/SVG/1.1/DTD/svg11.dtd"><svg t="1559023941058" class="icon" style="" viewBox="0 0 1024 1024" version="1.1" xmlns="http://www.w3.org/2000/svg" p-id="3876" xmlns:xlink="http://www.w3.org/1999/xlink" width="200" height="200"><defs><style type="text/css"></style></defs><path d="M880.5 794.2V533.7c0-29.6-24.3-53.9-53.9-53.9H656V219.3c0-29.6-24.3-53.9-53.9-53.9H422.4c-29.6 0-53.9 24.3-53.9 53.9v103.3H197.9c-29.6 0-53.9 24.3-53.9 53.9v417.7H63.1v62.9h898.2v-62.9h-80.8zM206.8 405.7c0-8.1 0-16.2 1.8-18 0.4-0.4 2.7-2.2 11.7-2.2h148.2v408.7H206.8V405.7z m224.6 388.5V241.8c0-7.6 5.8-13.5 13.5-13.5h134.7c7.6 0 13.5 5.8 13.5 13.5v552.4H431.4z m224.6 0V542.7h148.2c4.5 0 8.1 0.9 9.9 2.7 4 4 4 15.3 3.6 27.4v221.4H656z m0 0" p-id="3877"></path></svg>