<?xml version="1.0" standalone="no"?><!DOCTYPE svg PUBLIC "-//W3C//DTD SVG 1.1//EN" "http://www.w3.org/Graphics/SVG/1.1/DTD/svg11.dtd"><svg t="1558604902053" class="icon" style="" viewBox="0 0 1024 1024" version="1.1" xmlns="http://www.w3.org/2000/svg" p-id="687" xmlns:xlink="http://www.w3.org/1999/xlink" width="200" height="200"><defs><style type="text/css"></style></defs><path d="M958.027711 260.416617l-41.485825 23.450064c39.127119 69.230401 59.80749 148.116009 59.80749 228.133319 0 256.044672-208.31066 464.349376-464.349376 464.349376C255.955328 976.34342 47.650624 768.038716 47.650624 511.994044 47.650624 255.955328 255.955328 47.650624 512 47.650624c92.561337 0 181.936039 27.148943 258.456985 78.516316l26.559267-39.567887C712.609128 29.942461 614.055724 0 512 0 229.681965 0 0 229.681965 0 511.994044c0 282.318035 229.681965 512 512 512 282.312079 0 512-229.681965 512-512 0-88.213218-22.812736-175.205389-65.972289-251.577427z" fill="#2c2c2c" p-id="688"></path><path d="M216.45296 783.715771h47.650624c0-136.691772 111.204644-247.896416 247.896416-247.896415 136.685815 0 247.890459 111.204644 247.890459 247.896415h47.650625c0-128.27548-82.167545-237.675357-196.612432-278.458334 46.370014-31.687665 76.878326-84.961063 76.878326-145.239103 0-96.939238-78.861783-175.801021-175.806978-175.801021-96.939238 0-175.806978 78.861783-175.806978 175.801021 0 60.27804 30.508312 113.551437 76.878326 145.239103-114.450843 40.782978-196.618388 150.182855-196.618388 278.458334z m167.390686-423.697437c0-70.659919 57.490478-128.150397 128.156354-128.150397 70.659919 0 128.156354 57.490478 128.156354 128.150397 0 70.665876-57.490478 128.156354-128.156354 128.156354-70.665876-0.005956-128.156354-57.490478-128.156354-128.156354z" fill="#2c2c2c" p-id="689"></path></svg>