<?xml version="1.0" standalone="no"?><!DOCTYPE svg PUBLIC "-//W3C//DTD SVG 1.1//EN" "http://www.w3.org/Graphics/SVG/1.1/DTD/svg11.dtd"><svg t="1554088590799" class="icon" style="" viewBox="0 0 1024 1024" version="1.1" xmlns="http://www.w3.org/2000/svg" p-id="1453" xmlns:xlink="http://www.w3.org/1999/xlink" width="200" height="200"><defs><style type="text/css"></style></defs><path d="M436.413274 687.638647H207.796538a46.441645 46.441645 0 0 1 1.114599 25.511944 123.844386 123.844386 0 0 0-2.229199 67.990568c11.269839 38.639448 156.539304 15.975926 156.539304 15.975926C422.542703 776.682761 381.178678 1024 381.178678 1024h99.075509V732.470315a44.831668 44.831668 0 0 0-43.840913-44.831668z" fill="#1296db" p-id="1454"></path><path d="M885.349174 220.745311C801.506525-17.531287 545.024801 0.302304 545.024801 0.302304c-308.62021 9.04064-321.995404 276.792203-321.995404 276.792203-31.704163 47.680089-4.582242 61.302971-4.582242 61.302971 11.393684 24.768877-83.842649 151.957062-83.84265 151.957062-45.45089 45.45089 40.744803 52.262331 40.744803 52.262331 38.639448 6.811441 9.164485 54.49153 9.164485 54.49153a33.190295 33.190295 0 0 0-4.582242 10.774462h256.481723a123.844386 123.844386 0 0 1 123.844386 123.844386v292.272751h225.396783c4.458398-31.704163-47.680089-220.071474-47.680088-220.071474C708.499391 672.281943 827.018468 542.988404 827.018468 542.988404 950.862854 359.451024 885.349174 220.745311 885.349174 220.745311z" fill="#ED59A3" p-id="1455"></path></svg>