<?xml version="1.0" standalone="no"?><!DOCTYPE svg PUBLIC "-//W3C//DTD SVG 1.1//EN" "http://www.w3.org/Graphics/SVG/1.1/DTD/svg11.dtd"><svg t="1554193896947" class="icon" style="" viewBox="0 0 1024 1024" version="1.1" xmlns="http://www.w3.org/2000/svg" p-id="16698" xmlns:xlink="http://www.w3.org/1999/xlink" width="128" height="128"><defs><style type="text/css"></style></defs><path d="M512 91.428571C229.302857 91.428571 0 279.588571 0 512a374.674286 374.674286 0 0 0 111.177143 261.302857 470.125714 470.125714 0 0 1-103.497143 118.674286 23.405714 23.405714 0 0 0 18.285714 40.228571c82.285714 3.657143 183.954286-15.542857 272.822857-38.217143A603.428571 603.428571 0 0 0 512 932.571429c282.697143 0 512-188.342857 512-420.571429S794.697143 91.428571 512 91.428571zM274.285714 320.365714a18.285714 18.285714 0 0 1 18.285715-18.285714h219.428571a18.285714 18.285714 0 0 1 18.285714 18.285714v36.571429a18.285714 18.285714 0 0 1-18.285714 18.285714H292.571429a18.285714 18.285714 0 0 1-18.285715-18.285714z m475.428572 347.428572a18.285714 18.285714 0 0 1-18.285715 18.285714H292.571429a18.285714 18.285714 0 0 1-18.285715-18.285714v-36.571429a18.285714 18.285714 0 0 1 18.285715-18.285714h438.857142a18.285714 18.285714 0 0 1 18.285715 18.285714zM749.714286 512a18.285714 18.285714 0 0 1-18.285715 18.285714H292.571429a18.285714 18.285714 0 0 1-18.285715-18.285714v-36.571429a18.285714 18.285714 0 0 1 18.285715-18.285714h438.857142a18.285714 18.285714 0 0 1 18.285715 18.285714z" p-id="16699"></path></svg>