<?xml version="1.0" standalone="no"?><!DOCTYPE svg PUBLIC "-//W3C//DTD SVG 1.1//EN" "http://www.w3.org/Graphics/SVG/1.1/DTD/svg11.dtd"><svg t="1554195047317" class="icon" style="" viewBox="0 0 1026 1024" version="1.1" xmlns="http://www.w3.org/2000/svg" p-id="24224" xmlns:xlink="http://www.w3.org/1999/xlink" width="128.25" height="128"><defs><style type="text/css"></style></defs><path d="M1024 992c-70.4-198.4-262.4-339.2-492.8-339.2-224 0-416 140.8-492.8 339.2C38.4 1004.8 51.2 1024 64 1024l934.4 0C1017.6 1024 1030.4 1004.8 1024 992z" p-id="24225"></path><path d="M320 499.2c44.8 76.8 121.6 128 217.6 128 83.2 0 153.6-38.4 198.4-96C748.8 512 755.2 499.2 768 473.6c12.8-25.6 19.2-57.6 19.2-89.6 12.8-83.2 6.4-179.2-25.6-249.6 19.2-12.8 25.6-38.4 25.6-57.6 0-44.8-38.4-76.8-76.8-76.8-32 0-64 19.2-76.8 51.2C531.2 57.6 390.4 140.8 339.2 224 307.2 262.4 288 313.6 288 371.2c0 12.8 0 25.6 6.4 44.8L185.6 486.4 320 499.2zM371.2 268.8c153.6-6.4 294.4 121.6 339.2 204.8C678.4 531.2 608 576 537.6 576 428.8 576 339.2 486.4 339.2 371.2 339.2 332.8 345.6 300.8 371.2 268.8z" p-id="24226"></path></svg>