<?xml version="1.0" standalone="no"?><!DOCTYPE svg PUBLIC "-//W3C//DTD SVG 1.1//EN" "http://www.w3.org/Graphics/SVG/1.1/DTD/svg11.dtd"><svg t="1559791148605" class="icon" style="" viewBox="0 0 1024 1024" version="1.1" xmlns="http://www.w3.org/2000/svg" p-id="3963" xmlns:xlink="http://www.w3.org/1999/xlink" width="200" height="200"><defs><style type="text/css"></style></defs><path d="M453.818182 228.072727l-137.309091-162.909091H160.581818l137.309091 162.909091h155.927273z m404.945454 0l-137.309091-162.909091h-155.927272l137.309091 162.909091h155.927272z m-202.472727 0l-137.309091-162.909091h-155.927273l137.309091 162.909091h155.927273z m260.654546-160.581818H768l137.309091 162.909091H977.454545V128c0-34.909091-25.6-60.509091-60.50909-60.509091z m-802.909091 0h-6.981819C72.145455 67.490909 46.545455 93.090909 46.545455 128v100.072727h204.8L114.036364 67.490909zM46.545455 896c0 34.909091 25.6 60.509091 60.50909 60.509091h809.89091c34.909091 0 60.509091-25.6 60.50909-60.509091v-628.363636H46.545455v628.363636z m323.490909-444.509091c0-34.909091 27.927273-51.2 60.509091-51.2 9.309091 0 23.272727 2.327273 32.581818 6.981818l230.4 132.654546c39.563636 23.272727 39.563636 79.127273 0 100.072727l-230.4 132.654545c-9.309091 6.981818-20.945455 6.981818-32.581818 6.981819-32.581818 0-60.509091-16.290909-60.509091-51.2V451.490909z m0 0" p-id="3964"></path></svg>